<svg width="512" height="512" viewBox="0 0 512 512" fill="none" xmlns="http://www.w3.org/2000/svg">
  <defs>
    <linearGradient id="frame" x1="72" y1="438" x2="412" y2="90" gradientUnits="userSpaceOnUse">
      <stop stop-color="#1591F0"/>
      <stop offset="0.52" stop-color="#1FD4F2"/>
      <stop offset="1" stop-color="#69F08A"/>
    </linearGradient>
    <linearGradient id="candle" x1="256" y1="150" x2="256" y2="352" gradientUnits="userSpaceOnUse">
      <stop stop-color="#69F08A"/>
      <stop offset="1" stop-color="#14A9F2"/>
    </linearGradient>
    <linearGradient id="trend" x1="92" y1="378" x2="350" y2="250" gradientUnits="userSpaceOnUse">
      <stop stop-color="#14A9F2"/>
      <stop offset="1" stop-color="#2AF1E8"/>
    </linearGradient>
  </defs>

  <path
    d="M190 86H366L440 160V352L366 426H146L72 352V160L190 86Z"
    stroke="url(#frame)"
    stroke-width="28"
    stroke-linejoin="round"
  />

  <path d="M298 128H366V270L334 296V154H298V128Z" fill="url(#frame)"/>

  <g stroke="url(#candle)" stroke-width="7" stroke-linecap="round">
    <line x1="170" y1="200" x2="170" y2="336"/>
    <line x1="224" y1="160" x2="224" y2="310"/>
    <line x1="278" y1="118" x2="278" y2="286"/>
  </g>

  <g fill="url(#candle)">
    <rect x="150" y="238" width="40" height="82" rx="4"/>
    <rect x="204" y="194" width="40" height="92" rx="4"/>
    <rect x="258" y="142" width="40" height="96" rx="4"/>
  </g>

  <path
    d="M96 366L152 326H200L246 286L302 250L352 212"
    stroke="url(#trend)"
    stroke-width="10"
    stroke-linecap="round"
    stroke-linejoin="round"
  />

  <g fill="url(#trend)" stroke="#0A1022" stroke-width="6">
    <circle cx="96" cy="366" r="11"/>
    <circle cx="152" cy="326" r="11"/>
    <circle cx="200" cy="326" r="11"/>
    <circle cx="246" cy="286" r="11"/>
    <circle cx="302" cy="250" r="11"/>
    <circle cx="352" cy="212" r="11"/>
  </g>
</svg>
